<svg width="116" height="26" viewBox="0 0 116 26" fill="none" xmlns="http://www.w3.org/2000/svg">
<ellipse cx="11.1618" cy="12.3492" rx="6.76471" ry="6.34921" fill="#3674B5"/>
<ellipse cx="6.76471" cy="19.6508" rx="6.76471" ry="6.34921" fill="#A1E3F9"/>
<ellipse cx="16.2354" cy="19.6508" rx="6.76471" ry="6.34921" fill="#578FCA"/>
<path d="M27.2429 24V10.3636H31.8949V12.956H32.0369C32.321 12.1037 32.8063 11.429 33.4929 10.9318C34.1795 10.4347 34.9962 10.1861 35.9432 10.1861C36.902 10.1861 37.7276 10.4406 38.4201 10.9496C39.1126 11.4527 39.5298 12.1214 39.6719 12.956H39.8139C40.0447 12.1214 40.536 11.4527 41.2876 10.9496C42.0393 10.4406 42.9212 10.1861 43.9332 10.1861C45.2412 10.1861 46.3007 10.6063 47.1115 11.4467C47.9283 12.2872 48.3366 13.4058 48.3366 14.8026V24H43.4361V16.0455C43.4361 15.4477 43.2852 14.9801 42.9833 14.6428C42.6815 14.2995 42.276 14.1278 41.767 14.1278C41.264 14.1278 40.8645 14.2995 40.5685 14.6428C40.2785 14.9801 40.1335 15.4477 40.1335 16.0455V24H35.446V16.0455C35.446 15.4477 35.2951 14.9801 34.9933 14.6428C34.6914 14.2995 34.286 14.1278 33.777 14.1278C33.4396 14.1278 33.1496 14.2048 32.907 14.3587C32.6643 14.5125 32.4749 14.7345 32.3388 15.0245C32.2086 15.3086 32.1435 15.6489 32.1435 16.0455V24H27.2429ZM54.5534 24.2131C53.6833 24.2131 52.9139 24.071 52.2451 23.7869C51.5822 23.4969 51.0614 23.0589 50.6826 22.473C50.3038 21.8871 50.1144 21.1413 50.1144 20.2358C50.1144 19.4901 50.2417 18.8538 50.4962 18.3271C50.7507 17.7944 51.1058 17.3594 51.5615 17.022C52.0173 16.6847 52.547 16.4272 53.1507 16.2496C53.7603 16.0721 54.4172 15.9567 55.1215 15.9034C55.885 15.8442 56.4976 15.7732 56.9593 15.6903C57.4268 15.6016 57.7642 15.4802 57.9713 15.3263C58.1785 15.1665 58.282 14.9564 58.282 14.696V14.6605C58.282 14.3054 58.1459 14.0331 57.8737 13.8438C57.6014 13.6544 57.2522 13.5597 56.8261 13.5597C56.3585 13.5597 55.9768 13.6632 55.6808 13.8704C55.3908 14.0716 55.2162 14.3823 55.157 14.8026H50.6471C50.7063 13.974 50.9697 13.2105 51.4372 12.5121C51.9107 11.8078 52.6002 11.2455 53.5058 10.8253C54.4113 10.3991 55.5418 10.1861 56.8971 10.1861C57.8737 10.1861 58.7496 10.3015 59.5249 10.5323C60.3003 10.7572 60.9602 11.0739 61.5047 11.4822C62.0492 11.8847 62.4635 12.3582 62.7476 12.9027C63.0376 13.4413 63.1826 14.0272 63.1826 14.6605V24H58.6017V22.0824H58.4951C58.2229 22.5914 57.8914 23.0027 57.5008 23.3164C57.1161 23.6301 56.6752 23.858 56.178 24C55.6868 24.142 55.1452 24.2131 54.5534 24.2131ZM56.1514 21.1236C56.5242 21.1236 56.8734 21.0466 57.199 20.8928C57.5304 20.7389 57.7997 20.5169 58.0068 20.2269C58.214 19.9369 58.3176 19.5848 58.3176 19.1705V18.0341C58.1874 18.0874 58.0483 18.1377 57.9003 18.185C57.7583 18.2324 57.6044 18.2768 57.4387 18.3182C57.2789 18.3596 57.1072 18.3981 56.9237 18.4336C56.7462 18.4691 56.5597 18.5017 56.3644 18.5312C55.9856 18.5904 55.6749 18.6881 55.4323 18.8242C55.1955 18.9544 55.018 19.1172 54.8996 19.3125C54.7871 19.5019 54.7309 19.715 54.7309 19.9517C54.7309 20.3305 54.8641 20.6205 55.1304 20.8217C55.3968 21.023 55.7371 21.1236 56.1514 21.1236ZM65.5241 24V10.3636H70.4247V24H65.5241ZM67.9744 8.94318C67.3116 8.94318 66.7434 8.72419 66.2699 8.28622C65.7964 7.84825 65.5597 7.3215 65.5597 6.70597C65.5597 6.09044 65.7964 5.56368 66.2699 5.12571C66.7434 4.68774 67.3116 4.46875 67.9744 4.46875C68.6432 4.46875 69.2114 4.68774 69.679 5.12571C70.1525 5.56368 70.3892 6.09044 70.3892 6.70597C70.3892 7.3215 70.1525 7.84825 69.679 8.28622C69.2114 8.72419 68.6432 8.94318 67.9744 8.94318ZM77.8577 24.1776C76.887 24.1776 75.9933 23.9231 75.1766 23.4141C74.3657 22.9051 73.7147 22.1327 73.2235 21.0969C72.7381 20.0612 72.4955 18.7562 72.4955 17.1818C72.4955 15.5365 72.75 14.1989 73.259 13.169C73.7739 12.1392 74.4368 11.3846 75.2476 10.9052C76.0644 10.4258 76.9226 10.1861 77.8222 10.1861C78.4969 10.1861 79.0887 10.3045 79.5977 10.5412C80.1067 10.772 80.5329 11.0827 80.8762 11.4734C81.2194 11.8581 81.4798 12.2812 81.6574 12.7429H81.7284V5.81818H86.629V24H81.7639V21.7628H81.6574C81.468 22.2244 81.1958 22.6387 80.8406 23.0057C80.4914 23.3667 80.0653 23.6538 79.5622 23.8668C79.0651 24.074 78.4969 24.1776 77.8577 24.1776ZM79.6688 20.4134C80.1186 20.4134 80.5033 20.2831 80.8229 20.0227C81.1484 19.7564 81.397 19.3835 81.5686 18.9041C81.7462 18.4188 81.835 17.8447 81.835 17.1818C81.835 16.5071 81.7462 15.93 81.5686 15.4506C81.397 14.9653 81.1484 14.5954 80.8229 14.3409C80.5033 14.0805 80.1186 13.9503 79.6688 13.9503C79.219 13.9503 78.8343 14.0805 78.5146 14.3409C78.201 14.5954 77.9583 14.9653 77.7867 15.4506C77.6209 15.93 77.5381 16.5071 77.5381 17.1818C77.5381 17.8565 77.6209 18.4366 77.7867 18.9219C77.9583 19.4013 78.201 19.7712 78.5146 20.0316C78.8343 20.2861 79.219 20.4134 79.6688 20.4134ZM92.8346 24.2131C91.9646 24.2131 91.1952 24.071 90.5264 23.7869C89.8635 23.4969 89.3427 23.0589 88.9639 22.473C88.5851 21.8871 88.3957 21.1413 88.3957 20.2358C88.3957 19.4901 88.5229 18.8538 88.7774 18.3271C89.0319 17.7944 89.387 17.3594 89.8428 17.022C90.2985 16.6847 90.8282 16.4272 91.4319 16.2496C92.0415 16.0721 92.6985 15.9567 93.4028 15.9034C94.1663 15.8442 94.7789 15.7732 95.2405 15.6903C95.7081 15.6016 96.0454 15.4802 96.2526 15.3263C96.4597 15.1665 96.5633 14.9564 96.5633 14.696V14.6605C96.5633 14.3054 96.4272 14.0331 96.1549 13.8438C95.8827 13.6544 95.5335 13.5597 95.1073 13.5597C94.6398 13.5597 94.258 13.6632 93.9621 13.8704C93.6721 14.0716 93.4975 14.3823 93.4383 14.8026H88.9284C88.9875 13.974 89.2509 13.2105 89.7185 12.5121C90.192 11.8078 90.8815 11.2455 91.787 10.8253C92.6926 10.3991 93.823 10.1861 95.1784 10.1861C96.1549 10.1861 97.0309 10.3015 97.8062 10.5323C98.5815 10.7572 99.2414 11.0739 99.786 11.4822C100.33 11.8847 100.745 12.3582 101.029 12.9027C101.319 13.4413 101.464 14.0272 101.464 14.6605V24H96.8829V22.0824H96.7764C96.5041 22.5914 96.1727 23.0027 95.782 23.3164C95.3973 23.6301 94.9564 23.858 94.4593 24C93.968 24.142 93.4265 24.2131 92.8346 24.2131ZM94.4326 21.1236C94.8055 21.1236 95.1547 21.0466 95.4802 20.8928C95.8116 20.7389 96.0809 20.5169 96.2881 20.2269C96.4952 19.9369 96.5988 19.5848 96.5988 19.1705V18.0341C96.4686 18.0874 96.3295 18.1377 96.1816 18.185C96.0395 18.2324 95.8856 18.2768 95.7199 18.3182C95.5601 18.3596 95.3885 18.3981 95.205 18.4336C95.0274 18.4691 94.841 18.5017 94.6457 18.5312C94.2669 18.5904 93.9562 18.6881 93.7135 18.8242C93.4768 18.9544 93.2992 19.1172 93.1808 19.3125C93.0684 19.5019 93.0122 19.715 93.0122 19.9517C93.0122 20.3305 93.1453 20.6205 93.4117 20.8217C93.678 21.023 94.0183 21.1236 94.4326 21.1236ZM103.805 24V10.3636H108.706V24H103.805ZM106.256 8.94318C105.593 8.94318 105.025 8.72419 104.551 8.28622C104.078 7.84825 103.841 7.3215 103.841 6.70597C103.841 6.09044 104.078 5.56368 104.551 5.12571C105.025 4.68774 105.593 4.46875 106.256 4.46875C106.924 4.46875 107.493 4.68774 107.96 5.12571C108.434 5.56368 108.67 6.09044 108.67 6.70597C108.67 7.3215 108.434 7.84825 107.96 8.28622C107.493 8.72419 106.924 8.94318 106.256 8.94318Z" fill="black"/>
</svg>
