<svg width="112" height="26" viewBox="0 0 112 26" fill="none" xmlns="http://www.w3.org/2000/svg">
<ellipse cx="11" cy="11.5" rx="7" ry="6.5" fill="#3674B5"/>
<ellipse cx="7" cy="19.5" rx="7" ry="6.5" fill="#A1E3F9"/>
<circle cx="16.1981" cy="19.5" r="6.5" fill="#578FCA"/>
<path d="M26.2429 24V10.3636H30.8949V12.956H31.0369C31.321 12.1037 31.8063 11.429 32.4929 10.9318C33.1795 10.4347 33.9962 10.1861 34.9432 10.1861C35.902 10.1861 36.7276 10.4406 37.4201 10.9496C38.1126 11.4527 38.5298 12.1214 38.6719 12.956H38.8139C39.0447 12.1214 39.536 11.4527 40.2876 10.9496C41.0393 10.4406 41.9212 10.1861 42.9332 10.1861C44.2412 10.1861 45.3007 10.6063 46.1115 11.4467C46.9283 12.2872 47.3366 13.4058 47.3366 14.8026V24H42.4361V16.0455C42.4361 15.4477 42.2852 14.9801 41.9833 14.6428C41.6815 14.2995 41.276 14.1278 40.767 14.1278C40.264 14.1278 39.8645 14.2995 39.5685 14.6428C39.2785 14.9801 39.1335 15.4477 39.1335 16.0455V24H34.446V16.0455C34.446 15.4477 34.2951 14.9801 33.9933 14.6428C33.6914 14.2995 33.286 14.1278 32.777 14.1278C32.4396 14.1278 32.1496 14.2048 31.907 14.3587C31.6643 14.5125 31.4749 14.7345 31.3388 15.0245C31.2086 15.3086 31.1435 15.6489 31.1435 16.0455V24H26.2429ZM56.2877 24.2486C54.8318 24.2486 53.577 23.9704 52.5235 23.4141C51.4759 22.8518 50.6681 22.0469 50.0999 20.9993C49.5376 19.9458 49.2565 18.6851 49.2565 17.2173C49.2565 15.8087 49.5406 14.5777 50.1088 13.5241C50.6769 12.4706 51.4789 11.6509 52.5146 11.065C53.5504 10.479 54.7726 10.1861 56.1812 10.1861C57.211 10.1861 58.1432 10.3459 58.9777 10.6655C59.8122 10.9851 60.5254 11.4497 61.1173 12.0593C61.7091 12.663 62.1649 13.3969 62.4845 14.261C62.8041 15.1251 62.9639 16.0987 62.9639 17.1818V18.3182H50.7835V15.6193H58.4539C58.448 15.2287 58.3474 14.8854 58.1521 14.5895C57.9627 14.2876 57.7052 14.0539 57.3797 13.8881C57.0601 13.7165 56.6961 13.6307 56.2877 13.6307C55.8912 13.6307 55.5272 13.7165 55.1958 13.8881C54.8643 14.0539 54.598 14.2847 54.3968 14.5806C54.2014 14.8765 54.0979 15.2228 54.086 15.6193V18.5312C54.086 18.9692 54.1778 19.3598 54.3612 19.7031C54.5447 20.0464 54.8081 20.3157 55.1514 20.511C55.4946 20.7063 55.9089 20.804 56.3943 20.804C56.7316 20.804 57.0394 20.7566 57.3176 20.6619C57.6017 20.5672 57.8443 20.4311 58.0455 20.2536C58.2468 20.0701 58.3947 19.8511 58.4894 19.5966H62.9639C62.81 20.5436 62.446 21.3662 61.8719 22.0646C61.2978 22.7571 60.5373 23.2957 59.5903 23.6804C58.6492 24.0592 57.5484 24.2486 56.2877 24.2486ZM64.9636 24V10.3636H69.8642V24H64.9636ZM67.4139 8.94318C66.751 8.94318 66.1828 8.72419 65.7093 8.28622C65.2359 7.84825 64.9991 7.3215 64.9991 6.70597C64.9991 6.09044 65.2359 5.56368 65.7093 5.12571C66.1828 4.68774 66.751 4.46875 67.4139 4.46875C68.0827 4.46875 68.6509 4.68774 69.1184 5.12571C69.5919 5.56368 69.8287 6.09044 69.8287 6.70597C69.8287 7.3215 69.5919 7.84825 69.1184 8.28622C68.6509 8.72419 68.0827 8.94318 67.4139 8.94318ZM77.2971 24.1776C76.3265 24.1776 75.4328 23.9231 74.616 23.4141C73.8052 22.9051 73.1541 22.1327 72.6629 21.0969C72.1776 20.0612 71.9349 18.7562 71.9349 17.1818C71.9349 15.5365 72.1894 14.1989 72.6984 13.169C73.2133 12.1392 73.8762 11.3846 74.6871 10.9052C75.5038 10.4258 76.362 10.1861 77.2616 10.1861C77.9363 10.1861 78.5282 10.3045 79.0372 10.5412C79.5462 10.772 79.9723 11.0827 80.3156 11.4734C80.6589 11.8581 80.9193 12.2812 81.0969 12.7429H81.1679V5.81818H86.0684V24H81.2034V21.7628H81.0969C80.9075 22.2244 80.6352 22.6387 80.2801 23.0057C79.9309 23.3667 79.5048 23.6538 79.0017 23.8668C78.5045 24.074 77.9363 24.1776 77.2971 24.1776ZM79.1082 20.4134C79.558 20.4134 79.9427 20.2831 80.2623 20.0227C80.5879 19.7564 80.8364 19.3835 81.0081 18.9041C81.1856 18.4188 81.2744 17.8447 81.2744 17.1818C81.2744 16.5071 81.1856 15.93 81.0081 15.4506C80.8364 14.9653 80.5879 14.5954 80.2623 14.3409C79.9427 14.0805 79.558 13.9503 79.1082 13.9503C78.6584 13.9503 78.2737 14.0805 77.9541 14.3409C77.6404 14.5954 77.3978 14.9653 77.2261 15.4506C77.0604 15.93 76.9775 16.5071 76.9775 17.1818C76.9775 17.8565 77.0604 18.4366 77.2261 18.9219C77.3978 19.4013 77.6404 19.7712 77.9541 20.0316C78.2737 20.2861 78.6584 20.4134 79.1082 20.4134ZM95.0084 24.2486C93.5525 24.2486 92.2977 23.9704 91.2442 23.4141C90.1966 22.8518 89.3888 22.0469 88.8206 20.9993C88.2583 19.9458 87.9772 18.6851 87.9772 17.2173C87.9772 15.8087 88.2613 14.5777 88.8295 13.5241C89.3976 12.4706 90.1996 11.6509 91.2354 11.065C92.2711 10.479 93.4933 10.1861 94.9019 10.1861C95.9317 10.1861 96.8639 10.3459 97.6984 10.6655C98.5329 10.9851 99.2461 11.4497 99.838 12.0593C100.43 12.663 100.886 13.3969 101.205 14.261C101.525 15.1251 101.685 16.0987 101.685 17.1818V18.3182H89.5042V15.6193H97.1746C97.1687 15.2287 97.0681 14.8854 96.8728 14.5895C96.6834 14.2876 96.4259 14.0539 96.1004 13.8881C95.7808 13.7165 95.4168 13.6307 95.0084 13.6307C94.6119 13.6307 94.2479 13.7165 93.9165 13.8881C93.585 14.0539 93.3187 14.2847 93.1175 14.5806C92.9221 14.8765 92.8186 15.2228 92.8067 15.6193V18.5312C92.8067 18.9692 92.8985 19.3598 93.0819 19.7031C93.2654 20.0464 93.5288 20.3157 93.8721 20.511C94.2153 20.7063 94.6296 20.804 95.115 20.804C95.4523 20.804 95.7601 20.7566 96.0383 20.6619C96.3224 20.5672 96.565 20.4311 96.7662 20.2536C96.9675 20.0701 97.1154 19.8511 97.2101 19.5966H101.685C101.531 20.5436 101.167 21.3662 100.593 22.0646C100.018 22.7571 99.258 23.2957 98.311 23.6804C97.3699 24.0592 96.2691 24.2486 95.0084 24.2486ZM103.684 24V10.3636H108.585V24H103.684ZM106.135 8.94318C105.472 8.94318 104.904 8.72419 104.43 8.28622C103.957 7.84825 103.72 7.3215 103.72 6.70597C103.72 6.09044 103.957 5.56368 104.43 5.12571C104.904 4.68774 105.472 4.46875 106.135 4.46875C106.803 4.46875 107.372 4.68774 107.839 5.12571C108.313 5.56368 108.549 6.09044 108.549 6.70597C108.549 7.3215 108.313 7.84825 107.839 8.28622C107.372 8.72419 106.803 8.94318 106.135 8.94318Z" fill="black"/>
</svg>
