<svg width="136" height="36" viewBox="0 0 136 36" fill="none" xmlns="http://www.w3.org/2000/svg">
<path d="M26.5 33V17.97H32.74V21.24C33.18 20.12 33.81 19.26 34.63 18.66C35.47 18.06 36.52 17.76 37.78 17.76C39.02 17.76 40.07 18.07 40.93 18.69C41.81 19.29 42.43 20.07 42.79 21.03C43.47 20.01 44.27 19.21 45.19 18.63C46.13 18.05 47.26 17.76 48.58 17.76C50.44 17.76 51.88 18.44 52.9 19.8C53.92 21.14 54.43 23.04 54.43 25.5V33H48.1V25.17C48.1 23.39 47.47 22.5 46.21 22.5C45.43 22.5 44.8 22.82 44.32 23.46C43.86 24.08 43.63 24.92 43.63 25.98V33H37.3V25.17C37.3 24.23 37.14 23.55 36.82 23.13C36.5 22.71 36.03 22.5 35.41 22.5C34.63 22.5 34 22.81 33.52 23.43C33.06 24.03 32.83 24.88 32.83 25.98V33H26.5ZM65.181 33.24C63.481 33.24 61.981 32.91 60.681 32.25C59.381 31.59 58.361 30.68 57.621 29.52C56.901 28.34 56.541 26.99 56.541 25.47C56.541 23.91 56.911 22.56 57.651 21.42C58.411 20.26 59.441 19.36 60.741 18.72C62.041 18.08 63.531 17.76 65.211 17.76C66.931 17.76 68.441 18.09 69.741 18.75C71.041 19.39 72.051 20.29 72.771 21.45C73.491 22.59 73.851 23.93 73.851 25.47C73.851 27.01 73.481 28.37 72.741 29.55C72.021 30.71 71.011 31.62 69.711 32.28C68.411 32.92 66.901 33.24 65.181 33.24ZM65.241 28.74C66.061 28.74 66.731 28.44 67.251 27.84C67.791 27.22 68.061 26.43 68.061 25.47C68.061 24.51 67.801 23.73 67.281 23.13C66.761 22.51 66.101 22.2 65.301 22.2C64.441 22.2 63.741 22.51 63.201 23.13C62.681 23.73 62.421 24.51 62.421 25.47C62.421 26.43 62.681 27.22 63.201 27.84C63.741 28.44 64.421 28.74 65.241 28.74ZM82.4024 33.24C80.9824 33.24 79.8224 33 78.9224 32.52C78.0424 32.04 77.4024 31.39 77.0024 30.57C76.6024 29.75 76.4024 28.83 76.4024 27.81V21.69H74.4824V17.97H76.8524L79.6424 13.23H82.7324V17.97H86.2124V21.69H82.7324V26.94C82.7324 27.4 82.8824 27.76 83.1824 28.02C83.4824 28.26 83.8724 28.38 84.3524 28.38C84.8324 28.38 85.3124 28.26 85.7924 28.02L86.2424 32.19C85.7624 32.53 85.1524 32.79 84.4124 32.97C83.6724 33.15 83.0024 33.24 82.4024 33.24ZM88.4043 33V17.97H94.6443V21.72C95.0443 20.36 95.6643 19.36 96.5043 18.72C97.3643 18.08 98.3843 17.76 99.5643 17.76L100.314 23.07C99.8343 23.01 99.3643 22.98 98.9043 22.98C96.1243 22.98 94.7343 24.12 94.7343 26.4V33H88.4043ZM110.713 29.04C111.293 29.04 111.903 28.98 112.543 28.86C113.203 28.74 113.873 28.52 114.553 28.2L115.273 32.07C114.533 32.45 113.723 32.74 112.843 32.94C111.983 33.14 110.993 33.24 109.873 33.24C107.853 33.24 106.153 32.91 104.773 32.25C103.413 31.59 102.383 30.68 101.683 29.52C100.983 28.36 100.633 27.02 100.633 25.5C100.633 23.94 101.003 22.58 101.743 21.42C102.503 20.26 103.513 19.36 104.773 18.72C106.033 18.08 107.423 17.76 108.943 17.76C111.203 17.76 112.933 18.47 114.133 19.89C115.333 21.29 115.933 23.29 115.933 25.89L106.993 27.03C107.653 28.37 108.893 29.04 110.713 29.04ZM106.513 24.27L111.223 23.28C111.143 22.64 110.923 22.17 110.563 21.87C110.203 21.55 109.753 21.39 109.213 21.39C108.413 21.39 107.773 21.67 107.293 22.23C106.833 22.77 106.573 23.45 106.513 24.27ZM127.353 29.04C127.933 29.04 128.543 28.98 129.183 28.86C129.843 28.74 130.513 28.52 131.193 28.2L131.913 32.07C131.173 32.45 130.363 32.74 129.483 32.94C128.623 33.14 127.633 33.24 126.513 33.24C124.493 33.24 122.793 32.91 121.413 32.25C120.053 31.59 119.023 30.68 118.323 29.52C117.623 28.36 117.273 27.02 117.273 25.5C117.273 23.94 117.643 22.58 118.383 21.42C119.143 20.26 120.153 19.36 121.413 18.72C122.673 18.08 124.063 17.76 125.583 17.76C127.843 17.76 129.573 18.47 130.773 19.89C131.973 21.29 132.573 23.29 132.573 25.89L123.633 27.03C124.293 28.37 125.533 29.04 127.353 29.04ZM123.153 24.27L127.863 23.28C127.783 22.64 127.563 22.17 127.203 21.87C126.843 21.55 126.393 21.39 125.853 21.39C125.053 21.39 124.413 21.67 123.933 22.23C123.473 22.77 123.213 23.45 123.153 24.27Z" fill="black"/>
<ellipse cx="11" cy="20.5" rx="7" ry="6.5" fill="#3674B5"/>
<ellipse cx="7" cy="28.5" rx="7" ry="6.5" fill="#A1E3F9"/>
<circle cx="16.1981" cy="28.5" r="6.5" fill="#578FCA"/>
</svg>
