<svg width="97" height="21" viewBox="0 0 97 21" fill="none" xmlns="http://www.w3.org/2000/svg">
<path d="M7.27 4.55C8.51 4.55 9.57 4.88 10.45 5.54C11.33 6.18 11.93 7.14 12.25 8.42L11.83 8.54L12.01 8C12.27 7.4 12.7 6.84 13.3 6.32C13.92 5.78 14.62 5.35 15.4 5.03C16.18 4.71 16.97 4.55 17.77 4.55C19.03 4.55 20.04 4.82 20.8 5.36C21.58 5.9 22.14 6.63 22.48 7.55C22.84 8.45 23.02 9.47 23.02 10.61V19.1C23.02 19.34 22.93 19.55 22.75 19.73C22.59 19.91 22.38 20 22.12 20C21.86 20 21.64 19.91 21.46 19.73C21.3 19.55 21.22 19.34 21.22 19.1V10.7C21.22 9.88 21.09 9.13 20.83 8.45C20.57 7.77 20.16 7.23 19.6 6.83C19.04 6.43 18.29 6.23 17.35 6.23C16.53 6.23 15.74 6.43 14.98 6.83C14.24 7.23 13.63 7.77 13.15 8.45C12.69 9.13 12.46 9.88 12.46 10.7V19.1C12.46 19.34 12.37 19.55 12.19 19.73C12.03 19.91 11.82 20 11.56 20C11.3 20 11.08 19.91 10.9 19.73C10.74 19.55 10.66 19.34 10.66 19.1V10.61C10.66 9.79 10.54 9.05 10.3 8.39C10.06 7.73 9.67 7.21 9.13 6.83C8.59 6.43 7.86 6.23 6.94 6.23C6.12 6.23 5.34 6.43 4.6 6.83C3.88 7.21 3.29 7.73 2.83 8.39C2.39 9.05 2.17 9.79 2.17 10.61V19.1C2.17 19.34 2.08 19.55 1.9 19.73C1.72 19.91 1.51 20 1.27 20C0.99 20 0.77 19.91 0.61 19.73C0.45 19.55 0.37 19.34 0.37 19.1V5.66C0.37 5.42 0.45 5.21 0.61 5.03C0.79 4.85 1.01 4.76 1.27 4.76C1.53 4.76 1.74 4.85 1.9 5.03C2.08 5.21 2.17 5.42 2.17 5.66V8.45L1.36 9.56C1.42 8.96 1.61 8.36 1.93 7.76C2.27 7.16 2.71 6.62 3.25 6.14C3.79 5.66 4.4 5.28 5.08 5C5.78 4.7 6.51 4.55 7.27 4.55ZM42.0133 12.32C42.0133 13.84 41.6833 15.21 41.0233 16.43C40.3633 17.63 39.4633 18.58 38.3233 19.28C37.1833 19.96 35.8833 20.3 34.4233 20.3C33.0033 20.3 31.7133 19.96 30.5533 19.28C29.4133 18.58 28.5033 17.63 27.8233 16.43C27.1633 15.21 26.8333 13.84 26.8333 12.32C26.8333 10.78 27.1633 9.41 27.8233 8.21C28.5033 7.01 29.4133 6.06 30.5533 5.36C31.7133 4.66 33.0033 4.31 34.4233 4.31C35.8833 4.31 37.1833 4.66 38.3233 5.36C39.4633 6.06 40.3633 7.01 41.0233 8.21C41.6833 9.41 42.0133 10.78 42.0133 12.32ZM40.2133 12.32C40.2133 11.1 39.9633 10.02 39.4633 9.08C38.9633 8.12 38.2733 7.37 37.3933 6.83C36.5333 6.27 35.5433 5.99 34.4233 5.99C33.3433 5.99 32.3633 6.27 31.4833 6.83C30.6033 7.37 29.9033 8.12 29.3833 9.08C28.8833 10.02 28.6333 11.1 28.6333 12.32C28.6333 13.54 28.8833 14.62 29.3833 15.56C29.9033 16.5 30.6033 17.25 31.4833 17.81C32.3633 18.35 33.3433 18.62 34.4233 18.62C35.5433 18.62 36.5333 18.35 37.3933 17.81C38.2733 17.25 38.9633 16.5 39.4633 15.56C39.9633 14.62 40.2133 13.54 40.2133 12.32ZM44.8488 4.73H51.8388C52.0788 4.73 52.2788 4.82 52.4388 5C52.5988 5.16 52.6788 5.36 52.6788 5.6C52.6788 5.82 52.5988 6.01 52.4388 6.17C52.2788 6.33 52.0788 6.41 51.8388 6.41H44.8488C44.6088 6.41 44.3988 6.33 44.2188 6.17C44.0588 5.99 43.9788 5.79 43.9788 5.57C43.9788 5.33 44.0588 5.13 44.2188 4.97C44.3988 4.81 44.6088 4.73 44.8488 4.73ZM47.9388 0.499999C48.1988 0.499999 48.4088 0.589999 48.5688 0.769999C48.7488 0.949999 48.8388 1.16 48.8388 1.4V16.46C48.8388 17.02 48.9088 17.44 49.0488 17.72C49.2088 18 49.4088 18.19 49.6488 18.29C49.8888 18.37 50.1288 18.41 50.3688 18.41C50.5288 18.41 50.6688 18.39 50.7888 18.35C50.9288 18.29 51.0788 18.26 51.2388 18.26C51.4188 18.26 51.5688 18.33 51.6888 18.47C51.8288 18.61 51.8988 18.79 51.8988 19.01C51.8988 19.29 51.7388 19.53 51.4188 19.73C51.0988 19.91 50.7188 20 50.2788 20C50.0988 20 49.8288 19.99 49.4688 19.97C49.1088 19.93 48.7388 19.82 48.3588 19.64C47.9788 19.44 47.6588 19.1 47.3988 18.62C47.1588 18.14 47.0388 17.45 47.0388 16.55V1.4C47.0388 1.16 47.1188 0.949999 47.2788 0.769999C47.4588 0.589999 47.6788 0.499999 47.9388 0.499999ZM56.9048 20C56.6248 20 56.4048 19.91 56.2448 19.73C56.0848 19.55 56.0048 19.34 56.0048 19.1V5.66C56.0048 5.42 56.0848 5.21 56.2448 5.03C56.4248 4.85 56.6448 4.76 56.9048 4.76C57.1648 4.76 57.3748 4.85 57.5348 5.03C57.7148 5.21 57.8048 5.42 57.8048 5.66V10.16L57.3548 10.25C57.4148 9.55 57.5848 8.86 57.8648 8.18C58.1648 7.48 58.5648 6.84 59.0648 6.26C59.5648 5.68 60.1548 5.21 60.8348 4.85C61.5348 4.49 62.3148 4.31 63.1748 4.31C63.5348 4.31 63.8848 4.39 64.2248 4.55C64.5648 4.69 64.7348 4.93 64.7348 5.27C64.7348 5.57 64.6548 5.8 64.4948 5.96C64.3348 6.12 64.1448 6.2 63.9248 6.2C63.7448 6.2 63.5448 6.15 63.3248 6.05C63.1248 5.95 62.8548 5.9 62.5148 5.9C61.9548 5.9 61.3948 6.07 60.8348 6.41C60.2748 6.73 59.7648 7.17 59.3048 7.73C58.8448 8.29 58.4748 8.92 58.1948 9.62C57.9348 10.3 57.8048 10.99 57.8048 11.69V19.1C57.8048 19.34 57.7148 19.55 57.5348 19.73C57.3548 19.91 57.1448 20 56.9048 20ZM73.8039 20.3C72.2639 20.3 70.9039 19.97 69.7239 19.31C68.5439 18.65 67.6239 17.73 66.9639 16.55C66.3039 15.37 65.9739 13.99 65.9739 12.41C65.9739 10.71 66.3039 9.26 66.9639 8.06C67.6439 6.86 68.5139 5.94 69.5739 5.3C70.6539 4.64 71.7939 4.31 72.9939 4.31C73.8739 4.31 74.7239 4.47 75.5439 4.79C76.3839 5.09 77.1239 5.55 77.7639 6.17C78.4239 6.77 78.9439 7.51 79.3239 8.39C79.7239 9.27 79.9439 10.29 79.9839 11.45C79.9639 11.69 79.8639 11.9 79.6839 12.08C79.5039 12.24 79.2939 12.32 79.0539 12.32H67.0239L66.6639 10.7H78.4839L78.0939 11.06V10.46C78.0139 9.52 77.7139 8.72 77.1939 8.06C76.6739 7.4 76.0439 6.9 75.3039 6.56C74.5639 6.22 73.7939 6.05 72.9939 6.05C72.3939 6.05 71.7739 6.17 71.1339 6.41C70.5139 6.65 69.9439 7.03 69.4239 7.55C68.9239 8.05 68.5139 8.7 68.1939 9.5C67.8739 10.28 67.7139 11.21 67.7139 12.29C67.7139 13.47 67.9539 14.54 68.4339 15.5C68.9139 16.46 69.6039 17.22 70.5039 17.78C71.4239 18.34 72.5139 18.62 73.7739 18.62C74.4739 18.62 75.1039 18.52 75.6639 18.32C76.2239 18.12 76.7139 17.86 77.1339 17.54C77.5539 17.2 77.9039 16.85 78.1839 16.49C78.4039 16.31 78.6239 16.22 78.8439 16.22C79.0439 16.22 79.2139 16.3 79.3539 16.46C79.5139 16.62 79.5939 16.8 79.5939 17C79.5939 17.24 79.4939 17.45 79.2939 17.63C78.6939 18.35 77.9139 18.98 76.9539 19.52C75.9939 20.04 74.9439 20.3 73.8039 20.3ZM90.7668 20.3C89.2268 20.3 87.8668 19.97 86.6868 19.31C85.5068 18.65 84.5868 17.73 83.9268 16.55C83.2668 15.37 82.9368 13.99 82.9368 12.41C82.9368 10.71 83.2668 9.26 83.9268 8.06C84.6068 6.86 85.4768 5.94 86.5368 5.3C87.6168 4.64 88.7568 4.31 89.9568 4.31C90.8368 4.31 91.6868 4.47 92.5068 4.79C93.3468 5.09 94.0868 5.55 94.7268 6.17C95.3868 6.77 95.9068 7.51 96.2868 8.39C96.6868 9.27 96.9068 10.29 96.9468 11.45C96.9268 11.69 96.8268 11.9 96.6468 12.08C96.4668 12.24 96.2568 12.32 96.0168 12.32H83.9868L83.6268 10.7H95.4468L95.0568 11.06V10.46C94.9768 9.52 94.6768 8.72 94.1568 8.06C93.6368 7.4 93.0068 6.9 92.2668 6.56C91.5268 6.22 90.7568 6.05 89.9568 6.05C89.3568 6.05 88.7368 6.17 88.0968 6.41C87.4768 6.65 86.9068 7.03 86.3868 7.55C85.8868 8.05 85.4768 8.7 85.1568 9.5C84.8368 10.28 84.6768 11.21 84.6768 12.29C84.6768 13.47 84.9168 14.54 85.3968 15.5C85.8768 16.46 86.5668 17.22 87.4668 17.78C88.3868 18.34 89.4768 18.62 90.7368 18.62C91.4368 18.62 92.0668 18.52 92.6268 18.32C93.1868 18.12 93.6768 17.86 94.0968 17.54C94.5168 17.2 94.8668 16.85 95.1468 16.49C95.3668 16.31 95.5868 16.22 95.8068 16.22C96.0068 16.22 96.1768 16.3 96.3168 16.46C96.4768 16.62 96.5568 16.8 96.5568 17C96.5568 17.24 96.4568 17.45 96.2568 17.63C95.6568 18.35 94.8768 18.98 93.9168 19.52C92.9568 20.04 91.9068 20.3 90.7668 20.3Z" fill="black"/>
</svg>
