<svg width="222" height="40" viewBox="0 0 222 40" fill="none" xmlns="http://www.w3.org/2000/svg">
<rect y="7" width="16.5" height="16" rx="3" fill="#281F69"/>
<path d="M5.5 17C5.5 15.3431 6.84315 14 8.5 14H19C20.6569 14 22 15.3431 22 17V26C22 27.6569 20.6569 29 19 29H8.5C6.84315 29 5.5 27.6569 5.5 26V17Z" fill="#796BE6"/>
<path d="M48.0743 7.18182V29H43.1311L35.2475 17.5369H35.1197V29H29.1964V7.18182H34.2248L41.9805 18.6023H42.151V7.18182H48.0743ZM50.8761 29V7.18182H66.6005V11.9545H56.7994V15.7045H65.7909V20.4773H56.7994V24.2273H66.5579V29H50.8761ZM69.5382 7.18182H76.9104L81.9814 19.5398H82.2371L87.3081 7.18182H94.6803V29H88.8848V16.3864H88.7143L83.8564 28.8295H80.3621L75.5041 16.3011H75.3337V29H69.5382V7.18182ZM146.219 7.18182V29H141.276L133.392 17.5369H133.264V29H127.341V7.18182H132.369L140.125 18.6023H140.295V7.18182H146.219ZM149.021 29V7.18182H164.745V11.9545H154.944V15.7045H163.935V20.4773H154.944V24.2273H164.702V29H149.021ZM167.683 7.18182H175.055L180.126 19.5398H180.382L185.453 7.18182H192.825V29H187.029V16.3864H186.859L182.001 28.8295H178.507L173.649 16.3011H173.478V29H167.683V7.18182Z" fill="black"/>
<path d="M118.624 18.0909C118.624 20.5199 118.151 22.5689 117.207 24.2379C116.262 25.8999 114.987 27.1605 113.382 28.0199C111.777 28.8722 109.987 29.2983 108.013 29.2983C106.024 29.2983 104.227 28.8686 102.622 28.0092C101.024 27.1428 99.7531 25.8786 98.8084 24.2166C97.8709 22.5476 97.4022 20.5057 97.4022 18.0909C97.4022 15.6619 97.8709 13.6165 98.8084 11.9545C99.7531 10.2855 101.024 9.02486 102.622 8.17258C104.227 7.31321 106.024 6.88352 108.013 6.88352C109.987 6.88352 111.777 7.31321 113.382 8.17258C114.987 9.02486 116.262 10.2855 117.207 11.9545C118.151 13.6165 118.624 15.6619 118.624 18.0909ZM112.53 18.0909C112.53 16.7841 112.356 15.6832 112.008 14.7884C111.667 13.8864 111.159 13.2045 110.485 12.7429C109.817 12.2741 108.993 12.0398 108.013 12.0398C107.033 12.0398 106.205 12.2741 105.531 12.7429C104.863 13.2045 104.355 13.8864 104.007 14.7884C103.666 15.6832 103.496 16.7841 103.496 18.0909C103.496 19.3977 103.666 20.5021 104.007 21.4041C104.355 22.299 104.863 22.9808 105.531 23.4496C106.205 23.9112 107.033 24.142 108.013 24.142C108.993 24.142 109.817 23.9112 110.485 23.4496C111.159 22.9808 111.667 22.299 112.008 21.4041C112.356 20.5021 112.53 19.3977 112.53 18.0909ZM216.768 18.0909C216.768 20.5199 216.296 22.5689 215.351 24.2379C214.407 25.8999 213.132 27.1605 211.527 28.0199C209.922 28.8722 208.132 29.2983 206.158 29.2983C204.169 29.2983 202.372 28.8686 200.767 28.0092C199.169 27.1428 197.898 25.8786 196.953 24.2166C196.015 22.5476 195.547 20.5057 195.547 18.0909C195.547 15.6619 196.015 13.6165 196.953 11.9545C197.898 10.2855 199.169 9.02486 200.767 8.17258C202.372 7.31321 204.169 6.88352 206.158 6.88352C208.132 6.88352 209.922 7.31321 211.527 8.17258C213.132 9.02486 214.407 10.2855 215.351 11.9545C216.296 13.6165 216.768 15.6619 216.768 18.0909ZM210.675 18.0909C210.675 16.7841 210.501 15.6832 210.153 14.7884C209.812 13.8864 209.304 13.2045 208.629 12.7429C207.962 12.2741 207.138 12.0398 206.158 12.0398C205.177 12.0398 204.35 12.2741 203.675 12.7429C203.008 13.2045 202.5 13.8864 202.152 14.7884C201.811 15.6832 201.64 16.7841 201.64 18.0909C201.64 19.3977 201.811 20.5021 202.152 21.4041C202.5 22.299 203.008 22.9808 203.675 23.4496C204.35 23.9112 205.177 24.142 206.158 24.142C207.138 24.142 207.962 23.9112 208.629 23.4496C209.304 22.9808 209.812 22.299 210.153 21.4041C210.501 20.5021 210.675 19.3977 210.675 18.0909Z" fill="#6557C4"/>
</svg>
