<svg width="219" height="36" viewBox="0 0 219 36" fill="none" xmlns="http://www.w3.org/2000/svg">
<rect y="7" width="16" height="16" rx="3" fill="#281F69"/>
<path d="M7 17C7 15.3431 8.34315 14 10 14H20C21.6569 14 23 15.3431 23 17V26C23 27.6569 21.6569 29 20 29H10C8.34315 29 7 27.6569 7 26V17Z" fill="#796BE6"/>
<path d="M48.2841 7.18182V29H43.3409L35.4574 17.5369H35.3295V29H29.4062V7.18182H34.4347L42.1903 18.6023H42.3608V7.18182H48.2841ZM51.0859 29V7.18182H66.8104V11.9545H57.0092V15.7045H66.0007V20.4773H57.0092V24.2273H66.7678V29H51.0859ZM69.748 7.18182H77.1202L82.1912 19.5398H82.4469L87.5179 7.18182H94.8901V29H89.0946V16.3864H88.9242L84.0662 28.8295H80.5719L75.714 16.3011H75.5435V29H69.748V7.18182ZM146.429 7.18182V29H141.485L133.602 17.5369H133.474V29H127.551V7.18182H132.579L140.335 18.6023H140.505V7.18182H146.429ZM149.23 29V7.18182H164.955V11.9545H155.154V15.7045H164.145V20.4773H155.154V24.2273H164.912V29H149.23ZM167.893 7.18182H175.265L180.336 19.5398H180.591L185.662 7.18182H193.035V29H187.239V16.3864H187.069L182.211 28.8295H178.716L173.858 16.3011H173.688V29H167.893V7.18182Z" fill="black"/>
<path d="M118.834 18.0909C118.834 20.5199 118.361 22.5689 117.417 24.2379C116.472 25.8999 115.197 27.1605 113.592 28.0199C111.987 28.8722 110.197 29.2983 108.223 29.2983C106.234 29.2983 104.437 28.8686 102.832 28.0092C101.234 27.1428 99.9629 25.8786 99.0183 24.2166C98.0808 22.5476 97.612 20.5057 97.612 18.0909C97.612 15.6619 98.0808 13.6165 99.0183 11.9545C99.9629 10.2855 101.234 9.02486 102.832 8.17258C104.437 7.31321 106.234 6.88352 108.223 6.88352C110.197 6.88352 111.987 7.31321 113.592 8.17258C115.197 9.02486 116.472 10.2855 117.417 11.9545C118.361 13.6165 118.834 15.6619 118.834 18.0909ZM112.74 18.0909C112.74 16.7841 112.566 15.6832 112.218 14.7884C111.877 13.8864 111.369 13.2045 110.694 12.7429C110.027 12.2741 109.203 12.0398 108.223 12.0398C107.243 12.0398 106.415 12.2741 105.741 12.7429C105.073 13.2045 104.565 13.8864 104.217 14.7884C103.876 15.6832 103.706 16.7841 103.706 18.0909C103.706 19.3977 103.876 20.5021 104.217 21.4041C104.565 22.299 105.073 22.9808 105.741 23.4496C106.415 23.9112 107.243 24.142 108.223 24.142C109.203 24.142 110.027 23.9112 110.694 23.4496C111.369 22.9808 111.877 22.299 112.218 21.4041C112.566 20.5021 112.74 19.3977 112.74 18.0909ZM216.978 18.0909C216.978 20.5199 216.506 22.5689 215.561 24.2379C214.617 25.8999 213.342 27.1605 211.737 28.0199C210.132 28.8722 208.342 29.2983 206.367 29.2983C204.379 29.2983 202.582 28.8686 200.977 28.0092C199.379 27.1428 198.107 25.8786 197.163 24.2166C196.225 22.5476 195.757 20.5057 195.757 18.0909C195.757 15.6619 196.225 13.6165 197.163 11.9545C198.107 10.2855 199.379 9.02486 200.977 8.17258C202.582 7.31321 204.379 6.88352 206.367 6.88352C208.342 6.88352 210.132 7.31321 211.737 8.17258C213.342 9.02486 214.617 10.2855 215.561 11.9545C216.506 13.6165 216.978 15.6619 216.978 18.0909ZM210.884 18.0909C210.884 16.7841 210.71 15.6832 210.362 14.7884C210.021 13.8864 209.514 13.2045 208.839 12.7429C208.171 12.2741 207.347 12.0398 206.367 12.0398C205.387 12.0398 204.56 12.2741 203.885 12.7429C203.218 13.2045 202.71 13.8864 202.362 14.7884C202.021 15.6832 201.85 16.7841 201.85 18.0909C201.85 19.3977 202.021 20.5021 202.362 21.4041C202.71 22.299 203.218 22.9808 203.885 23.4496C204.56 23.9112 205.387 24.142 206.367 24.142C207.347 24.142 208.171 23.9112 208.839 23.4496C209.514 22.9808 210.021 22.299 210.362 21.4041C210.71 20.5021 210.884 19.3977 210.884 18.0909Z" fill="#6557C4"/>
</svg>
